/* XPM */
static char *result[] = {
/* columns rows colors chars-per-pixel */
"64 64 190 2 ",
"   c #572700",
".  c #633B00",
"X  c #6D4700",
"o  c #784B00",
"O  c #745603",
"+  c #684D1D",
"@  c #747F7A",
"#  c #8B5A00",
"$  c #8A6700",
"%  c #936700",
"&  c #946A00",
"*  c #84611A",
"=  c #987D1A",
"-  c #A77C00",
";  c #856921",
":  c #9A7825",
">  c #9F7F34",
",  c #897949",
"<  c #847D65",
"1  c #B78B00",
"2  c #B29000",
"3  c #BD9A00",
"4  c #AA921C",
"5  c #BDA103",
"6  c #AA8B23",
"7  c #B69C24",
"8  c #C09F04",
"9  c #C9A400",
"0  c #CCAA01",
"q  c #C6A70A",
"w  c #D6B400",
"e  c #DBB400",
"r  c #D7B900",
"t  c #DBBB00",
"y  c #C6AB17",
"u  c #C5A51D",
"i  c #CAAA1C",
"p  c #DABC15",
"a  c #D3B71A",
"s  c #E3BE00",
"d  c #F1BE00",
"f  c #C5AA27",
"g  c #CDB222",
"h  c #CEB529",
"j  c #D5BC3A",
"k  c #DEC200",
"l  c #DFC20D",
"z  c #DEC21A",
"x  c #E2C401",
"c  c #EBC600",
"v  c #E6CB01",
"b  c #E9CE00",
"n  c #E3C508",
"m  c #E6CA0B",
"M  c #E9CD0C",
"N  c #EDD300",
"B  c #ECD20D",
"V  c #FED300",
"C  c #F4DB01",
"Z  c #FADB00",
"A  c #F0D609",
"S  c #E4C913",
"D  c #ECCC12",
"F  c #E8CB1C",
"G  c #EDD41C",
"H  c #F1D711",
"J  c #F5DC16",
"K  c #F5DC1C",
"L  c #FEE300",
"P  c #FBE31E",
"I  c #DCC22A",
"U  c #DBC43B",
"Y  c #E7CC2C",
"T  c #EDD427",
"R  c #F4DC24",
"E  c #F0DB2E",
"W  c #E4CB3A",
"Q  c #EED734",
"!  c #ECD53E",
"~  c #F3DB34",
"^  c #F2DC3B",
"/  c #FBE525",
"(  c #F9E12D",
")  c #FAE434",
"_  c #FCE736",
"`  c #FAE43B",
"'  c #AD9245",
"]  c #BBA54E",
"[  c #968A69",
"{  c #A59E7F",
"}  c #D6BC4B",
"|  c #CFBA55",
" . c #C3B671",
".. c #D7C049",
"X. c #DCCA5B",
"o. c #E3CB42",
"O. c #E3CF4D",
"+. c #E8D044",
"@. c #E6D249",
"#. c #F7D443",
"$. c #E1CE55",
"%. c #E2CF5A",
"&. c #E5D153",
"*. c #E6D35C",
"=. c #EBD758",
"-. c #F2DB57",
";. c #F5DD56",
":. c #FEE941",
">. c #F9E44A",
",. c #FDEA4C",
"<. c #FFF042",
"1. c #EFE05F",
"2. c #FEEC54",
"3. c #FDED5B",
"4. c #D4C76E",
"5. c #DDCF76",
"6. c #E3CF65",
"7. c #EBD963",
"8. c #EEDD6C",
"9. c #F1DE62",
"0. c #F1D76A",
"q. c #E8D975",
"w. c #F3DC78",
"e. c #EFE16F",
"r. c #FEEA64",
"t. c #F5E16B",
"y. c #FFF667",
"u. c #FEF16A",
"i. c #EFE27E",
"p. c #F8E875",
"a. c #F2E37E",
"s. c #FEED78",
"d. c #FEF579",
"f. c #778E94",
"g. c #7EA0AD",
"h. c #7ECEF6",
"j. c #7FD0F8",
"k. c #8B9EA1",
"l. c #8FB1BE",
"z. c #97B4BA",
"x. c #BAC4A6",
"c. c #B9C9B6",
"v. c #BED2BB",
"b. c #C9C487",
"n. c #DCD581",
"m. c #D4D18C",
"M. c #D9D58B",
"N. c #C5C491",
"B. c #E7D982",
"V. c #E9DB89",
"C. c #F0DD87",
"Z. c #F7E682",
"A. c #F8EA8A",
"S. c #FDF38D",
"D. c #FFFF8F",
"F. c #FCEF92",
"G. c #F6ED9A",
"H. c #FEF493",
"J. c #FDF09A",
"K. c #FFFC9C",
"L. c #C8CBA2",
"P. c #CCD3A6",
"I. c #D2D2A3",
"U. c #FAEAA0",
"Y. c #FCF6A9",
"T. c #E4EAB9",
"R. c #FCF4B6",
"E. c #81B1C8",
"W. c #96BAC5",
"Q. c #89BDD5",
"!. c #86C2DF",
"~. c #9BC9D9",
"^. c #ACC9C4",
"/. c #B7CCC3",
"(. c #A8CFD3",
"). c #AAD3DA",
"_. c #8DC8E2",
"`. c #86CCEE",
"'. c #8ACEEE",
"]. c #94CDE5",
"[. c #96CFE4",
"{. c #93D1EB",
"}. c #84CFF3",
"|. c #89CFF0",
" X c #84D1F5",
".X c #89D1F3",
"XX c #83D4FA",
"oX c #88D5F9",
"OX c #C2D6C5",
"+X c #FCFAC8",
/* pixels */
"|.|.|.|.|.|.|.|.|.|.|.|.|.|.|.|.|.|.|.|.|.|.|.|.|.|.|.|.|.|.|.|.|.|.|.|.|.|.|.|.|.|.|.|.|.|.|.|.|.|.|.|.|.|.|.|.|.|.|.|.|.|.|.|.",
"|.|.|.|.|.|.|.|.|.|.|.|.|.|.|.|.|.|.|.|.|.|.|.|.|.|.|.|.|.|.|.|.|.|.|.|.|.|.|.|.|.|.|.|.|.|.|.|.|.|.|.|.|.|.|.|.|.|.|.|.|.|.|.|.",
"|.|.|.|.|.|.|.|.|.|.|.|.|.|.|.|.|.|.|.|.|.|.|.|.|.|.|.|.|.|.|.|.|.|.|.|.|.|.|.|.|.|.|.|.|.|.|.|.|.|.|.|.|.|.|.|.|.|.|.|.|.|.|.|.",
"|.|.|.|.|.|.|.|.|.|.|.|.|.|.|.|.|.|.|.|.|.|.|.|.|.|.|.|.|.|.|.|.|.|.|.|.|.|.|.|.|.|.|.|.|.|.|.|.|.|.|.|.|.|.|.|.|.|.|.|.|.|.|.|.",
"|.|.|.|.|.|.|.|.|.|.|.|.|.|.|.|.|.|.|.|.|.|.|.|.|.|.|.|.|.|.|.|.|.|.|.|.|.|.|.|.|.|.|.|.|.|.|.|.|.|.|.|.|.|.|.|.|.|.|.|.|.|.|.|.",
"|.|.|.|.|.|.|.|.|.|.|.|.|.|.|.|.|.|.|.|.|.|.|.|.|.|.|.|.|.|.|.|.|.|.|.|.|.|.|.|.|.|.|.|.|.|.|.|.|.|.|.|.|.|.|.|.|.|.|.|.|.|.|.|.",
"|.|.|.|.|.|.|.|.|.|.|.|.|.|.|.|.|.|.|.|.|.|.|.|.|.|.|.|.|.|.|.|.|.|.|.|.|.|.|.|.|.|.|.|.|.|.|.|.|.|.|.|.|.|.|.|.|.|.|.|.|.|.|.|.",
"|.|.|.|.|.|.|.|.|.|.|.|.|.|.|.|.|.|.|.|.|.|.|.|.|.|.|.|.|.|.|.|.|.|.|.|.|.|.|.|.|.|.|.|.|.|.|.|.|.|.|.|.|.|.|.|.|.|.|.|.|.|.|.|.",
"|.|.|.|.|.|.|.|.|.|.|.|.|.|.|.|.|.|.|.|.|.|.|.|.|.|.|.|.|.|.|.|.|.|.|.|.|.|.|.|.|.|.|.|.|.|.|.|.|.|.|.|.|.|.|.|.|.|.|.|.|.|.|.|.",
"|.|.|.|.|.|.|.|.|.|.|.|.|.|.|.|.|.|.|.|.|.|.|.|.|.|.|.|.|.|.|.|.|.|.|.|.|.|.|.|.|.|.|.|.|.|.|.|.|.|.|.|.|.|.|.|.|.|.|.|.|.|.|.|.",
"|.|.|.|.|.|.|.|.|.|.|.|.|.|.|.|.|.|.|.|.|.|.|.|.|.|.|.|.|.|.|.|.|.|.|.|.|.|.|.|.|.|.|.|.|.|.|.|.|.|.|.|.|.|.|.|.|.|.|.|.|.|.|.|.",
"|.|.|.|.|.|.|.|.|.|.|.|.|.|.|.|.|.|.|.|.|.|.|.|.|.|.|.|.|.|.|.|.|.|.|.|.|.|.|.|.|.|.|.|.|.|.|.|.|.|.|.|.|.|.|.|.|.|.|.|.|.|.|.|.",
"|.|.|.|.|.|.|.|.|.|.|.|.|.|.|.|.|.|.|.|.|.|.|.|.|.|.|.|.|.'.'.'.'.|.}.'.'..X|.|.|.|.|.|.|.|.|.|.|.|.|.|.|.|.|.|.|.|.|.|.|.|.|.|.",
"|.|.|.|.|.|.|.|.|.|.|.|.|.|.|.|.|.|.|.|.|.|.|.|.|.|.|.|.'.|. X|.|.|.'.|.}.'.|.|.|.|.|.|.|.|.|.|.|.|.|.|.|.|.|.|.|.|.|.|.|.|.|.|.",
"|.|.|.|.|.|.|.|.|.|.|.|.|.|.|.|.|.|.|.|.|.|.|.|.|.|.|.'. Xh.`.`.h.h.h.`.'..X'.|.|.|.|.|.|.|.|.|.|.|.|.|.|.|.|.|.|.|.|.|.|.|.|.|.",
"|.|.|.|.|.|.|.|.|.|.|.|.|.|.|.|.|.|.|.|.|.|.|.|.|.|.'. X`.c.n.M.P.c.~.h.'.'..X'.|.|.|.|.|.|.|.|.|.|.|.|.|.|.|.|.|.|.|.|.|.|.|.|.",
"|.|.|.|.|.|.|.|.|.|.|.|.|.|.|.|.|.|.|.|.|.|.|.|.'.'.}.`.m.L L L ` 0.w c. X|.'.'.|.|.|.|.|.|.|.|.|.|.|.|.|.|.|.|.|.|.|.|.|.|.|.|.",
"|.|.|.|.|.|.|.|.|.|.|.|.|.|.|.|.|.|.|.|.|.|.|.|..X'.h.P.L >.2.2.>.J.w.d /. X'..X|.|.|.|.|.|.|.|.|.|.|.|.|.|.|.|.|.|.|.|.|.|.|.|.",
"|.|.|.|.|.|.|.|.|.|.|.|.|.|.|.|.|.|.|.|.|.|.|.|.'. X).Z ` ) T ` :._ Y.#.D [.}.'.|.|.|.|.|.|.|.|.|.|.|.|.|.|.|.|.|.|.|.|.|.|.|.|.",
"|.|.|.|.|.|.|.|.|.|.|.|.|.|.|.|.|.|.|.|.|.|.|.|.'.h.M.L ~ 9 7 h ~ / s.U.V I.j.'.|.|.|.|.|.|.|.|.|.|.|.|.|.|.|.|.|.|.|.|.|.|.|.|.",
"|.|.|.|.|.|.|.|.|.|.|.|.|.|.|.|.|.|.|.|.|.|.|.'.}.[.K R 5 U 9.8.X.^ _ Y.t.;.[.}.'.'.|.|.|.|.|.|.|.|.|.|.|.|.|.|.|.|.|.|.|.|.|.|.",
"|.|.|.|.|.|.|.|.|.|.|.|.|.|.|.|.|.|.|.|.|.|..X'.j.v.L f h y.d.D.S.&.L F.R.u.OX}.'..X|.|.|.|.|.|.|.|.|.|.|.|.|.|.|.|.|.|.|.|.|.|.",
"|.|.|.|.|.|.|.|.|.|.|.|.|.|.|.|.|.|.|.|.|.'.'.'.}.5.N 7 :.1.| 5.K.a.T 3.+XY.T.}.'.|.|.|.|.|.|.|.|.|.|.|.|.|.|.|.|.|.|.|.|.|.|.|.",
"|.|.|.|.|.|.|.|.|.|.|.|.|.|.|.|.|.|.|.|.|..X'.}.'.^ t I <.$.% ] K.S.=./ R.Y.Y.{.}.|.|.|.|.|.|.|.|.|.|.|.|.|.|.|.|.|.|.|.|.|.|.|.",
"|.|.|.|.|.|.|.|.|.|.|.|.|.|.|.|.|.|.|.|.|.|.'.}.(.C g G _ 8.q +.S.H.e.C U.J.s.).h.'..X|.|.|.|.|.|.|.|.|.|.|.|.|.|.|.|.|.|.|.|.|.",
"|.|.|.|.|.|.|.|.|.|.|.|.|.|.|.|.|.|.|.|.|.|.'.j.v.N g H ( 0.g ^ d.S.p.C S.Z.Z OXj.'.'.|.|.|.|.|.|.|.|.|.|.|.|.|.|.|.|.|.|.|.|.|.",
"|.|.|.|.|.|.|.|.|.|.|.|.|.|.|.|.|.|.|.|.'.'.'.h.I.n g C R 7.i Q y.d.s.H p.C.c L.h.'.|.|.|.|.|.|.|.|.|.|.|.|.|.|.|.|.|.|.|.|.|.|.",
"|.|.|.|.|.|.|.|.|.|.|.|.|.|.|.|.|.|.|.|..X'.'.h.M.t p C K 7.i Q 3.u.u.E 3.V.s b. X'.|.|.|.|.|.|.|.|.|.|.|.|.|.|.|.|.|.|.|.|.|.|.",
"|.|.|.|.|.|.|.|.|.|.|.|.|.|.|.|.|.|.|.|.|.|.'.}.q.t z N J 7.y T ,.3.r.` >.V.0  .}.'.'.|.|.|.|.|.|.|.|.|.|.|.|.|.|.|.|.|.|.|.|.|.",
"|.|.|.|.|.|.|.|.|.|.|.|.|.|.|.|.|.|.|.|.|.|.'.'.*.k S N B *.y T :.,.3.^ ^ V.8  .'.'..X'.|.|.|.|.|.|.|.|.|.|.|.|.|.|.|.|.|.|.|.|.",
"|.|.|.|.|.|.|.|.|.|.|.|.|.|.|.|.|.|.|.|.|.|.}.'.&.b S b B &.u G ) :.,.~ ~ B.1 ' `.'.|.|.|.|.|.|.|.|.|.|.|.|.|.|.|.|.|.|.|.|.|.|.",
"|.|.|.|.|.|.|.|.|.|.|.|.|.|.|.|.|.|.|.|.|.'.|.'.@.! m b B &.u D R ) ` ~ R 5.- ' `..X'.|.|.|.|.|.|.|.|.|.|.|.|.|.|.|.|.|.|.|.|.|.",
"|.|.|.|.|.|.|.|.|.|.|.|.|.|.|.|.|.|.|.|.|.|.}.].O.9.v x M O.u M K R ( T P %.$ ' _..X|.|.|.|.|.|.|.|.|.|.|.|.|.|.|.|.|.|.|.|.|.|.",
"|.|.|.|.|.|.|.|.|.|.|.|.|.|.|.|.|.|.|.|.|.'.}.{.O.p.n x m o.u n H J / T J U o @ `.|.|.|.|.|.|.|.|.|.|.|.|.|.|.|.|.|.|.|.|.|.|.|.",
"|.|.|.|.|.|.|.|.|.|.|.|.|.|.|.|.|.|.|.|.|.'.}.'.$.a.F t n W u n N A J B P a O , '.|.|.|.|.|.|.|.|.|.|.|.|.|.|.|.|.|.|.|.|.|.|.|.",
"|.|.|.|.|.|.|.|.|.|.|.|.|.|.|.|.|.|.|.|.|.|.|.|.X.a.W t n U u x N N B B C 7 X [ |.|.|.|.|.|.|.|.|.|.|.|.|.|.|.|.|.|.|.|.|.|.|.|.",
"|.|.|.|.|.|.|.|.|.|.|.|.|.|.|.|.|.|.|.|.|.|.|.}.4.a.=.e s I f x b N N v C 4   @ .X'.'.|.|.|.|.|.|.|.|.|.|.|.|.|.|.|.|.|.|.|.|.|.",
"|.|.|.|.|.|.|.|.|.|.|.|.|.|.|.|.|.|.|.|.|.|.'.}.b.p.8.e p I u x v v b v N 6   f..X'.|.|.|.|.|.|.|.|.|.|.|.|.|.|.|.|.|.|.|.|.|.|.",
"|.|.|.|.|.|.|.|.|.|.|.|.|.|.|.|.|.|.|.|.|.|.'.j.L.-.A.w a I f k k k k N N + . g.oX'.|.|.|.|.|.|.|.|.|.|.|.|.|.|.|.|.|.|.|.|.|.|.",
"|.|.|.|.|.|.|.|.|.|.|.|.|.|.|.|.|.|.|.|.|.|.'.j.^.M G.e a r 3 t k k k N k + . E.oX'.|.|.|.|.|.|.|.|.|.|.|.|.|.|.|.|.|.|.|.|.|.|.",
"|.|.|.|.|.|.|.|.|.|.|.|.|.|.|.|.|.|.|.|.|.|.|.}.~.x G.W 0 U } s k k k N 9 . O !..X'.|.|.|.|.|.|.|.|.|.|.|.|.|.|.|.|.|.|.|.|.|.|.",
"|.|.|.|.|.|.|.|.|.|.|.|.|.|.|.|.|.|.|.|.|.|.|.|.'.} w.i.8 6.9.Y r k k N = o < }.`..X|.|.|.|.|.|.|.|.|.|.|.|.|.|.|.|.|.|.|.|.|.|.",
"|.|.|.|.|.|.|.|.|.|.|.|.|.|.|.|.|.|.|.|.|.|.|.'.h.N.v G.e q p a r r N k ; # k.oX'.|.|.|.|.|.|.|.|.|.|.|.|.|.|.|.|.|.|.|.|.|.|.|.",
"|.|.|.|.|.|.|.|.|.|.|.|.|.|.|.|.|.|.|.|.|.|.|.'.XX^.s q.a.9 9 0 r k C 5 * & Q..X`.|.|.|.|.|.|.|.|.|.|.|.|.|.|.|.|.|.|.|.|.|.|.|.",
"|.|.|.|.|.|.|.|.|.|.|.|.|.|.|.|.|.|.|.|.|.|.|.|..X`...x e.! j %.Y v N = & [ .X|.|.|.|.|.|.|.|.|.|.|.|.|.|.|.|.|.|.|.|.|.|.|.|.|.",
"|.|.|.|.|.|.|.|.|.|.|.|.|.|.|.|.|.|.|.|.|.|.|.|.'.j.x.s z M ;.=.k N 0 : - W. X'.|.|.|.|.|.|.|.|.|.|.|.|.|.|.|.|.|.|.|.|.|.|.|.|.",
"|.|.|.|.|.|.|.|.|.|.|.|.|.|.|.|.|.|.|.|.|.|.|.|.'..X_.} x z x x S l 6 1 { |.'.|.|.|.|.|.|.|.|.|.|.|.|.|.|.|.|.|.|.|.|.|.|.|.|.|.",
"|.|.|.|.|.|.|.|.|.|.|.|.|.|.|.|.|.|.|.|.|.|.|.|.'.'. XW.e x x x v 2 2 ' ].}.'.|.|.|.|.|.|.|.|.|.|.|.|.|.|.|.|.|.|.|.|.|.|.|.|.|.",
"|.|.|.|.|.|.|.|.|.|.|.|.|.|.|.|.|.|.|.|.|.|.|.|.|.|.'.}.l.y t e 3 > { _. X'.|.|.|.|.|.|.|.|.|.|.|.|.|.|.|.|.|.|.|.|.|.|.|.|.|.|.",
"|.|.|.|.|.|.|.|.|.|.|.|.|.|.|.|.|.|.|.|.|.|.|.|.|.|.|.|.XXQ.z.l.Q.]. X.X'.|.|.|.|.|.|.|.|.|.|.|.|.|.|.|.|.|.|.|.|.|.|.|.|.|.|.|.",
"|.|.|.|.|.|.|.|.|.|.|.|.|.|.|.|.|.|.|.|.|.|.|.|.|.|.|.|.'..XXXoX}.}.|.'.|.|.|.|.|.|.|.|.|.|.|.|.|.|.|.|.|.|.|.|.|.|.|.|.|.|.|.|.",
"|.|.|.|.|.|.|.|.|.|.|.|.|.|.|.|.|.|.|.|.|.|.|.|.|.|.|.|.'.'.'.'.'.'.'.|.|.|.|.|.|.|.|.|.|.|.|.|.|.|.|.|.|.|.|.|.|.|.|.|.|.|.|.|.",
"|.|.|.|.|.|.|.|.|.|.|.|.|.|.|.|.|.|.|.|.|.|.|.|.|.|.|.|.|.|.|.|.'.|.|.|.|.|.|.|.|.|.|.|.|.|.|.|.|.|.|.|.|.|.|.|.|.|.|.|.|.|.|.|.",
"|.|.|.|.|.|.|.|.|.|.|.|.|.|.|.|.|.|.|.|.|.|.|.|.|.|.|.|.|.|.|.|.|.|.|.|.|.|.|.|.|.|.|.|.|.|.|.|.|.|.|.|.|.|.|.|.|.|.|.|.|.|.|.|.",
"|.|.|.|.|.|.|.|.|.|.|.|.|.|.|.|.|.|.|.|.|.|.|.|.|.|.|.|.|.|.|.|.|.|.|.|.|.|.|.|.|.|.|.|.|.|.|.|.|.|.|.|.|.|.|.|.|.|.|.|.|.|.|.|.",
"|.|.|.|.|.|.|.|.|.|.|.|.|.|.|.|.|.|.|.|.|.|.|.|.|.|.|.|.|.|.|.|.|.|.|.|.|.|.|.|.|.|.|.|.|.|.|.|.|.|.|.|.|.|.|.|.|.|.|.|.|.|.|.|.",
"|.|.|.|.|.|.|.|.|.|.|.|.|.|.|.|.|.|.|.|.|.|.|.|.|.|.|.|.|.|.|.|.|.|.|.|.|.|.|.|.|.|.|.|.|.|.|.|.|.|.|.|.|.|.|.|.|.|.|.|.|.|.|.|.",
"|.|.|.|.|.|.|.|.|.|.|.|.|.|.|.|.|.|.|.|.|.|.|.|.|.|.|.|.|.|.|.|.|.|.|.|.|.|.|.|.|.|.|.|.|.|.|.|.|.|.|.|.|.|.|.|.|.|.|.|.|.|.|.|.",
"|.|.|.|.|.|.|.|.|.|.|.|.|.|.|.|.|.|.|.|.|.|.|.|.|.|.|.|.|.|.|.|.|.|.|.|.|.|.|.|.|.|.|.|.|.|.|.|.|.|.|.|.|.|.|.|.|.|.|.|.|.|.|.|.",
"|.|.|.|.|.|.|.|.|.|.|.|.|.|.|.|.|.|.|.|.|.|.|.|.|.|.|.|.|.|.|.|.|.|.|.|.|.|.|.|.|.|.|.|.|.|.|.|.|.|.|.|.|.|.|.|.|.|.|.|.|.|.|.|.",
"|.|.|.|.|.|.|.|.|.|.|.|.|.|.|.|.|.|.|.|.|.|.|.|.|.|.|.|.|.|.|.|.|.|.|.|.|.|.|.|.|.|.|.|.|.|.|.|.|.|.|.|.|.|.|.|.|.|.|.|.|.|.|.|.",
"|.|.|.|.|.|.|.|.|.|.|.|.|.|.|.|.|.|.|.|.|.|.|.|.|.|.|.|.|.|.|.|.|.|.|.|.|.|.|.|.|.|.|.|.|.|.|.|.|.|.|.|.|.|.|.|.|.|.|.|.|.|.|.|.",
"|.|.|.|.|.|.|.|.|.|.|.|.|.|.|.|.|.|.|.|.|.|.|.|.|.|.|.|.|.|.|.|.|.|.|.|.|.|.|.|.|.|.|.|.|.|.|.|.|.|.|.|.|.|.|.|.|.|.|.|.|.|.|.|.",
"|.|.|.|.|.|.|.|.|.|.|.|.|.|.|.|.|.|.|.|.|.|.|.|.|.|.|.|.|.|.|.|.|.|.|.|.|.|.|.|.|.|.|.|.|.|.|.|.|.|.|.|.|.|.|.|.|.|.|.|.|.|.|.|."
};
