/* XPM */
static char *_be827e9a7e04e1ad799e1e58ca36ed8rEbRIBMPTRkVy2Sm[] = {
/* columns rows colors chars-per-pixel */
"64 64 209 2 ",
"   c black",
".  c #292636",
"X  c #5C0000",
"o  c #650000",
"O  c #7E0C03",
"+  c #543A2B",
"@  c #7E430C",
"#  c #63453B",
"$  c #000974",
"%  c #04287D",
"&  c #4B1248",
"*  c #472D6F",
"=  c #5F5658",
"-  c #734352",
";  c #716D69",
":  c #8D000F",
">  c #B90903",
",  c #842000",
"<  c #8C3600",
"1  c #B61C2F",
"2  c #9D2C2C",
"3  c #B12B2F",
"4  c #C60306",
"5  c #D50000",
"6  c #DC0000",
"7  c #EA0000",
"8  c #F70000",
"9  c #FE0011",
"0  c #DC2403",
"q  c #FC3700",
"w  c #CC1E29",
"e  c #EE1F2B",
"r  c #D12831",
"t  c #EC2734",
"y  c #ED2A34",
"u  c #F73338",
"i  c #834700",
"p  c #8F4B00",
"a  c #934E00",
"s  c #8C5619",
"d  c #A45F19",
"f  c #B06700",
"g  c #895033",
"h  c #BA7536",
"j  c #C46700",
"k  c #C57B35",
"l  c #FA3E42",
"z  c #DB1072",
"x  c #895A46",
"c  c #995E4A",
"v  c #8E6553",
"b  c #9C6457",
"n  c #B17049",
"m  c #BC6558",
"M  c #867773",
"N  c #B57E6C",
"B  c #A46875",
"V  c #C74B4C",
"C  c #E54445",
"Z  c #FE534D",
"A  c #CF6C4F",
"S  c #CD625C",
"D  c #C25A69",
"F  c #F65761",
"G  c #D3766C",
"H  c #F17766",
"J  c #A98777",
"K  c #CA8871",
"L  c #D98C74",
"P  c #E58C78",
"I  c #E8947C",
"U  c #F7F043",
"Y  c #00038D",
"T  c #033185",
"R  c #002C93",
"E  c #053697",
"W  c #001FA0",
"Q  c #0027A7",
"!  c #013BA8",
"~  c #0037B7",
"^  c #0946A9",
"/  c #0C4CB3",
"(  c #004CBC",
")  c #104EB4",
"_  c #2859A8",
"`  c #3955BB",
"'  c #3162B1",
"]  c #564B96",
"[  c #544DB3",
"{  c #7454BA",
"}  c #5D61B9",
"|  c #4579BD",
" . c #706BB2",
".. c #0044C6",
"X. c #0554C6",
"o. c #195AC5",
"O. c #005AD5",
"+. c #055CD8",
"@. c #335DCD",
"#. c #0060DE",
"$. c #005DE9",
"%. c #0064E4",
"&. c #0665E5",
"*. c #0069EA",
"=. c #0072ED",
"-. c #006EF3",
";. c #0077FD",
":. c #1276F8",
">. c #2167E7",
",. c #2E70E8",
"<. c #4563DB",
"1. c #736FE1",
"2. c #A85490",
"3. c #85668E",
"4. c #B551B0",
"5. c #C3768A",
"6. c #7E8993",
"7. c #79A7BF",
"8. c #0182FE",
"9. c #1B83FA",
"0. c #3B99FB",
"q. c #4B87C7",
"w. c #558DC9",
"e. c #5C96D9",
"r. c #6D9BCD",
"t. c #72ACCF",
"y. c #79A4D4",
"u. c #76B5DA",
"i. c #59AAF9",
"p. c #68A7E0",
"a. c #78BAE6",
"s. c #7DCCEF",
"d. c #7DD2F5",
"f. c #958898",
"g. c #B89288",
"h. c #B29990",
"j. c #ABA59C",
"k. c #848EB5",
"l. c #B58DA6",
"z. c #A79DAB",
"x. c #9CA7B3",
"c. c #A4A2BF",
"v. c #BCA7B9",
"b. c #D89D89",
"n. c #D39195",
"m. c #FF948B",
"M. c #E68B94",
"N. c #EDA68A",
"B. c #E5A795",
"V. c #EEB094",
"C. c #F8B79A",
"Z. c #C895AD",
"A. c #D5B2B5",
"S. c #D9B4BE",
"D. c #F4B1A5",
"F. c #E7B7B4",
"G. c #F7C6AE",
"H. c #F5C9AF",
"J. c #E7C7B5",
"K. c #FCD2B4",
"L. c #F9D2BE",
"P. c #86ABC8",
"I. c #88B7D0",
"U. c #9BB9D4",
"Y. c #ADADC8",
"T. c #B4BED4",
"R. c #C8BBCE",
"E. c #89C1DE",
"W. c #94C3DC",
"Q. c #9AC5DB",
"!. c #B0D1CC",
"~. c #B5C6DC",
"^. c #85C4E6",
"/. c #85CCEE",
"(. c #89CEEE",
"). c #94C4E3",
"_. c #97CBE8",
"`. c #94CDEA",
"'. c #91D4EE",
"]. c #85CEF0",
"[. c #89CFF0",
"{. c #85D2F4",
"}. c #8BD2F3",
"|. c #87D9FC",
" X c #91D2F1",
".X c #9AD5F4",
"XX c #A8C6E2",
"oX c #B5CBE4",
"OX c #A2D2EF",
"+X c #BAD5EC",
"@X c #A7D7F2",
"#X c #B7DCF3",
"$X c #C6CBD7",
"%X c #DACBDB",
"&X c #C8D1DF",
"*X c #F9C9CA",
"=X c #F6E9D1",
"-X c #C0D2EA",
";X c #DADBE7",
":X c #C6DAF3",
">X c #F0DEE3",
",X c #CEE4F7",
"<X c #DAE8F7",
"1X c #E8E9ED",
"2X c #E4EBF4",
"3X c #F0ECF6",
"4X c #EBF3FB",
"5X c #F4F6F9",
"6X c #FBFDFE",
/* pixels */
"[.[.[.[.[.[.[.[.[.[.[.[.[.[.[.[.[.[.[.[.[.[.[.[.[.[.[.[.[.[.[.[.[.[.[.[.[.[.[.[.[.[.[.[.[.[.[.[.[.[.[.[.[.[.[.[.[.[.[.[.[.[.[.[.",
"[.[.[.[.[.[.[.[.[.[.[.[.[.[.[.[.[.[.[.[.[.[.[.[.[.[.[.[.[.[.[.[.[.[.[.[.[.[.[.[.[.[.[.[.[.[.[.[.[.[.[.[.[.[.[.[.[.[.[.[.[.[.[.[.",
"[.[.[.[.[.[.[.[.[.[.[.[.[.[.[.[.[.[.[.[.[.[.[.[.[.[.[.[.[.[.[.[.[.[.[.[.[.[.[.[.[.[.[.[.[.[.[.[.[.[.[.[.[.[.[.[.[.[.[.[.[.[.[.[.",
"[.[.[.[.[.[.[.[.[.[.[.[.[.[.[.[.[.[.[.[.[.[.[.[.[.[.[.[.[.[.[.[.[.[.[.[.[.[.[.[.[.[.[.[.[.[.[.[.[.[.[.[.[.[.[.[.[.[.[.[.[.[.[.[.",
"[.[.[.[.[.[.[.[.[.[.[.[.[.[.[.[.[.[.[.[.[.[.[.[.[.[.[.[.[.[.[.[.[.[.[.[.[.[.[.[.[.[.[.[.[.[.[.[.[.[.[.[.[.[.[.[.[.[.[.[.[.[.[.[.",
"[.[.[.[.[.[.[.[.[.[.[.[.[.[.[.[.[.[.[.[.[.[.[.[.[.[.[.[.[.[.[.[.[.[.[.[.[.[.[.[.[.[.[.[.[.[.[.[.[.[.[.[.[.[.[.[.[.[.[.[.[.[.[.[.",
"[.[.[.[.[.[.[.[.[.[.[.[.[.[.[.[.[.[.[.[.[.[.[.[.[.[.[.[.[.[.[.[.[.[.[.[.[.[.[.[.[.[.[.[.[.[.[.[.[.[.[.[.[.[.[.[.[.[.[.[.[.[.[.[.",
"[.[.[.[.[.[.[.[.[.[.[.[.[.[.[.[.[.[.[.[.[.[.[.[.[.[.[.[.[.[.[.[.[.[.[.[.[.[.[.[.[.[.[.[.[.[.[.[.[.[.[.[.[.[.[.[.[.[.[.[.[.[.[.[.",
"[.[.[.[.[.[.[.[.[.[.[.[.[.[.[.[.[.[.[.[.[.[.[.[.[.[.(.(.[.[.].].]. X].].[.[.[.[.[.[.[.[.[.[.[.[.[.[.[.[.[.[.[.[.[.[.[.[.[.[.[.[.",
"[.[.[.[.[.[.[.[.[.[.[.[.[.[.[.[.[.[.[.[.[.[.[.[.[.[.[.(.(.(.(.s.#X5X2XOX/.[.[.[.[.[.[.[.[.[.].[.[.[.[.[.[.[.[.[.[.[.[.[.[.[.[.[.",
"[.[.[.[.[.[.[.[.[.[.[.[.[.[.[.[.[.[.[.[.[.[.[.[.[.[.].].{.d.]./.;X5X5X4X.X].[.[.[.[.[.[.[.[.[.[.[.[.[.[.[.[.[.[.[.[.[.[.[.[.[.[.",
"[.[.[.[.[.[.[.[.[.[.[.[.[.[.[.[.[.[.[.[.[.[.[.[.[.].]./.R.Z.(.}.;X2X2X5X<X/.[.[.[.[.[.[.[.[.[.[.[.[.[.[.[.[.[.[.[.[.[.[.[.[.[.[.",
"[.[.[.[.[.[.[.[.[.[.[.[.[.[.[.[.[.[.[.[.[.[.[.[.[.[.{.Z.8 m.F.OX3X6X&X;X,Xs.[.[.[.[.[.[.[.[.[.[.[.[.[.[.[.[.[.[.[.[.[.[.[.[.[.[.",
"[.[.[.[.[.[.[.[.[.[.[.[.[.[.[.[.[.[.[.[.[.[.[.[.(.{.U.7 F *XD.R.%X%X$XT.OXs.[.[.[.[.[.[.[.[.[.[.[.[.[.[.[.[.[.[.[.[.[.[.[.[.[.[.",
"[.[.[.[.[.[.[.[.[.[.[.[.[.[.[.[.[.[.[.[.[.[.[.[.[.{.5.8 F *X*XM.R.;X5X5X@X/.}.[.[.[.[.[.[.[.[.[.[.[.[.[.[.[.[.[.[.[.[.[.[.[.[.[.",
"[.[.[.[.[.[.[.[.[.[.[.[.[.[.[.[.[.[.[.[.[.[.[.[.{._.r e 9 F.F.C r %X6X5X X]./.[.[.[.[.[.[.[.[.[.[.[.[.[.[.[.[.[.[.[.[.[.[.[.[.[.",
"[.[.[.[.[.[.[.[.[.[.[.[.[.[.[.[.[.[.[.[.[.[.[.(.{.Y.5 t e u 5 : o $X6X+Xs.'.[.[.[.[.[.[.[.[.[.[.[.[.[.[.[.[.[.[.[.[.[.[.[.[.[.[.",
"[.[.[.[.[.[.[.[.[.[.[.[.[.[.[.[.[.[.[.[.[.[.(.(.{.l.6 t y 4 m c O S.3X#X/.[.[.[.[.[.[.[.[.[.[.[.[.[.[.[.[.[.[.[.[.[.[.[.[.[.[.[.",
"[.[.[.[.[.[.[.[.[.[.[.[.[.[.[.[.[.[.[.[.(.(.{.(.{.5.6 y w X L L.S 7 G `.].[.[.[.[.[.[.[.[.[.[.[.[.[.[.[.[.[.[.[.[.[.[.[.[.[.[.[.",
"[.[.[.[.[.[.[.[.[.[.[.[.[.[.[.[.[.[.[.[.}.}.(.(.(.D 5 r > b.=X;XF.Z F /.[.[.[.[.[.[.[.[.[.[.[.[.[.[.[.[.[.[.[.[.[.[.[.[.[.[.[.[.",
"[.[.[.[.[.[.[.[.[.[.[.[.[.[.[.[.[.[.[.[./.[.(.}.`.V 4 1 A %X2XJ.J.=XM.}.(.[.[.[.[.[.[.[.[.[.[.[.[.[.[.[.[.[.[.[.[.[.[.[.[.[.[.[.",
"[.[.[.[.[.[.[.[.[.[.[.[.[.[.[.[.[.[.[.[.[.[.(.{.U.4 r 2 V.A.P.G.K.=XA.d.(.[.[.[.[.[.[.[.[.[.[.[.[.[.[.[.[.[.[.[.[.[.[.[.[.[.[.[.",
"[.[.[.[.[.[.[.[.[.[.[.[.[.[.[.[.[.[.[.[.[.[.(.{.z.4 : , N.J.k.B.F.C.v.{.(.[.[.[.[.[.[.[.[.[.[.[.[.[.[.[.[.[.[.[.[.[.[.[.[.[.[.[.",
"[.[.[.[.[.[.[.[.[.[.[.[.[.[.[.[.[.[.[.[.[.[.}.d.l.4 J o K J.. # J n c.{.(.[.[.[.[.[.[.[.[.[.[.[.[.[.[.[.[.[.[.[.[.[.[.[.[.[.[.[.",
"[.[.[.[.[.[.[.[.[.[.[.[.[.[.[.[.[.[.[.[.[.[.(.{.c.H C.g N K.+     b T.d.(.[.[.[.[.[.[.[.[.[.[.[.[.[.[.[.[.[.[.[.[.[.[.[.[.[.[.[.",
"[.[.[.[.[.[.[.[.[.[.[.[.[.[.[.[.[.[.[.[.[.[.(.}./.F.C.m K K.H.g.f.b.XXd.(.[.[.[.[.[.[.[.[.[.[.[.[.[.[.[.[.[.[.[.[.[.[.[.[.[.[.[.",
"[.[.[.[.[.[.[.[.[.[.[.[.[.[.[.[.[.[.[.[.[.[.(.(.d.$XK.B.I V.G.g.- B.`.].(.[.[.[.[.[.[.[.[.[.[.[.[.[.[.[.[.[.[.[.[.[.[.[.[.[.[.[.",
"[.[.[.[.[.[.[.[.[.[.[.[.[.[.[.[.[.[.[.[.[.[.[.(.[._.H.C.P P C.B.b.V./.[.(.[.[.[.[.[.[.[.[.[.[.[.[.[.[.[.[.[.[.[.[.[.[.[.[.[.[.[.",
"[.[.[.[.[.[.[.[.[.[.[.[.[.[.[.[.[.[.[.[.[.[.[.}.(.{.XXb m G P N.V.l.{.(.[.[.[.[.[.[.[.[.[.[.[.[.[.[.[.[.[.[.[.[.[.[.[.[.[.[.[.[.",
"[.[.[.[.[.[.[.[.[.[.[.[.[.[.[.[.[.[.[.[.[.[.(.}./.s.d.B 5 u V B S 2.Q.'.(.[.(.}.{.[.[.[.[.[.[.[.[.[.[.[.[.[.[.[.[.[.[.[.[.[.[.[.",
"[.[.[.[.[.[.[.[.[.[.[.[.[.[.[.[.[.[.[.[.[.[.[.s.(.@Xn.l l Z q { 1.4.y._.].(.{.`.Q.].[.[.[.[.[.[.[.[.[.[.[.[.[.[.[.[.[.[.[.[.[.[.",
"[.[.[.[.[.[.[.[.[.[.[.[.[.[.[.[.[.[.[.[.[.[./.@X<X5XH 8 C u q z y.!.;.a.}.(.{.h.j P.}.[.[.[.[.[.[.[.[.[.[.[.[.[.[.[.[.[.].[.[.[.",
"[.[.[.[.[.[.[.[.[.[.[.[.[.[.[.[.[.[.[.[.[.].#X5X6X6X*X8 w 1 0 z j.U 8.i./.'.W.k f J  X].[.[.[.[.[.[.[.[.[.[.[.[.[.[.[.[.[.[.[.[.",
"[.[.[.[.[.[.[.[.[.[.[.[.[.[.[.[.[.[.[.[.[.[.4X6X6X6X>X6 1 1 6 4.=.k.=.9.0.i.y.h a h. X}.[.[.[.[.[.[.[.[.[.[.[.[.[.[.[.[.[.[.[.[.",
"[.[.[.[.[.[.[.[.[.[.[.[.[.[.[.[.[.[.[.[.]..X2X6X6X6X1X3.P.3 1 <.;.$.=.;.8.8.=.b p j.}./.[.[.[.[.[.[.[.[.[.[.[.[.[.[.[.[.[.[.[.[.",
"[.[.[.[.[.[.[.[.[.[.[.[.[.[.[.[.[.[.[.[.]..X:X4X6X6XoX].|. .[ %.>.,.-.;.:.9.;.3.< x.}./.[.[.[.[.[.[.[.[.[.[.[.[.[.[.[.[.[.[.[.[.",
"[.[.[.[.[.[.[.[.[.[.[.[.[.[.[.[.[.[.[.[./. XoX,X-X2X+Xs. Xq...>.%.*.*.*.*.:.;. .< U.{.[.[.[.[.[.[.[.[.[.[.[.[.[.[.[.[.[.[.[.[.[.",
"[.[.[.[.[.[.[.[.[.[.[.[.[.[.[.[.[.[.[.[.[.{.oX+XU.-X.Xs. Xe...&.&.%.&.+.+.&.*.} i E.}.[.[.[.[.[.[.[.[.[.[.[.[.[.[.[.[.[.[.[.[.[.",
"[.[.[.[.[.[.[.[.[.[.[.[.[.[.[.[.[.[.[.[.[.[.`.oX~.oX(.(. Xe.~ +.$.+.+.X.( o.#.[ p E.{.(.[.[.[.[.[.[.[.[.[.[.[.[.[.[.[.[.[.[.[.[.",
"[.[.[.[.[.[.[.[.[.[.[.[.[.[.[.[.[.[.[.[.[.[.[.`.U.).[.[. Xp.~ X.O.O.X.! ! ! X.] s _.].[.[.[.[.[.[.[.[.[.[.[.[.[.[.[.[.[.[.[.[.[.",
"[.[.[.[.[.[.[.[.[.[.[.[.[.[.[.[.[.[.[.[.[.[.[.]././.[.(.}.a.( / ( ) Q q.a.q.~ * v (.[.(.[.[.[.[.[.[.[.[.[.[.[.[.[.[.[.[.[.[.[.[.",
"[.[.[.[.[.[.[.[.[.[.[.[.[.[.[.[.[.[.[.[.[.[.[.(.[.}.[.(././.o.( / ~ ' /.}.[.p.& ; }.[.[.[.[.[.[.[.[.[.[.[.[.[.[.[.[.[.[.[.[.[.[.",
"[.[.[.[.[.[.[.[.[.[.[.[.[.[.[.[.[.[.[.[.[.[.[.[.[.[.}.}. Xu.% ^ ) Y t.|./.}.|.I.E.[.(.[.[.[.[.[.[.[.[.[.[.[.[.[.[.[.[.[.[.[.[.[.",
"[.[.[.[.[.[.[.[.[.[.[.[.[.[.[.[.[.[.[.[.[.[.[.[.(.}.}.t.r._ $ % T R ^. X/.[.[.}.}.[.[.[.[.[.[.[.[.[.[.[.[.[.[.[.[.[.[.[.[.[.[.[.",
"[.[.[.[.[.[.[.[.[.[.[.[.[.[.[.[.[.[.[.[.[.[.[.[.].].Q.@ Y R E E R ' [.[.[.[.[.(.].[.[.[.[.[.[.[.[.[.[.[.[.[.[.[.[.[.[.[.[.[.[.[.",
"[.[.[.[.[.[.[.[.[.[.[.[.[.[.[.[.[.[.[.[.[.[.[.[.[.{.U.p ` ^ ! ^ Q w.}.(.[.[.[.[.[.[.[.[.[.[.[.[.[.[.[.[.[.[.[.[.[.[.[.[.[.[.[.[.",
"[.[.[.[.[.[.[.[.[.[.[.[.[.[.[.[.[.[.[.[.[.[.[.[.[.{.W.i @./ ^ ^ Q u.}.(.[.[.[.[.[.[.[.[.[.[.[.[.[.[.[.[.[.[.[.[.[.[.[.[.[.[.[.[.",
"[.[.[.[.[.[.[.[.[.[.[.[.[.[.[.[.[.[.[.[.[.[.[.[.[.[.W.i ` O.) W |  X}.}.[.[.[.[.[.[.[.[.[.[.[.[.[.[.[.[.[.[.[.[.[.[.[.[.[.[.[.[.",
"[.[.[.[.[.[.[.[.[.[.[.[.[.[.[.[.[.[.[.[.[.[.[.[.(.}.(.g ] +.^ _ ^.}.].[.[.[.[.[.[.[.[.[.[.[.[.[.[.[.[.[.[.[.[.[.[.[.[.[.[.[.[.[.",
"[.[.[.[.[.[.[.[.[.[.[.[.[.[.[.[.[.[.[.[.[.[.[.[.].].'.x x ) ! u.}.[.[.[.[.[.[.[.[.[.[.[.[.[.[.[.[.[.[.[.[.[.[.[.[.[.[.[.[.[.[.[.",
"[.[.[.[.[.[.[.[.[.[.[.[.[.[.[.[.[.[.[.[.[.[.[.[.(.{._.x f ] q.'.[.}.[.[.[.[.[.[.[.[.[.[.[.[.[.[.[.[.[.[.[.[.[.[.[.[.[.[.[.[.[.[.",
"[.[.[.[.[.[.[.[.[.[.[.[.[.[.[.[.[.[.[.[.[.[.[.[.[.s.'.v d h ^.[.[.[.[.[.[.[.[.[.[.[.[.[.[.[.[.[.[.[.[.[.[.[.[.[.[.[.[.[.[.[.[.[.",
"[.[.[.[.[.[.[.[.[.[.[.[.[.[.[.[.[.[.[.[.[.[.[.[.[.[.'.M s n W.{.[.[.[.[.[.[.[.[.[.[.[.[.[.[.[.[.[.[.[.[.[.[.[.[.[.[.[.[.[.[.[.[.",
"[.[.[.[.[.[.[.[.[.[.[.[.[.[.[.[.[.[.[.[.[.[.[.[.[.(.}.6.o v (.[.(.[.[.[.[.[.[.[.[.[.[.[.[.[.[.[.[.[.[.[.[.[.[.[.[.[.[.[.[.[.[.[.",
"[.[.[.[.[.[.[.[.[.[.[.[.[.[.[.[.[.[.[.[.[.[.[.[.[.(.}.I.= 7.{.[.[.[.[.[.[.[.[.[.[.[.[.[.[.[.[.[.[.[.[.[.[.[.[.[.[.[.[.[.[.[.[.[.",
"[.[.[.[.[.[.[.[.[.[.[.[.[.[.[.[.[.[.[.[.[.[.[.[.[.[.[.{./.[.}.[.[.[.[.[.[.[.[.[.[.[.[.[.[.[.[.[.[.[.[.[.[.[.[.[.[.[.[.[.[.[.[.[.",
"[.[.[.[.[.[.[.[.[.[.[.[.[.[.[.[.[.[.[.[.[.[.[.[.[.[.[.[.}.[.(.[.[.[.[.[.[.[.[.[.[.[.[.[.[.[.[.[.[.[.[.[.[.[.[.[.[.[.[.[.[.[.[.[.",
"[.[.[.[.[.[.[.[.[.[.[.[.[.[.[.[.[.[.[.[.[.[.[.[.[.[.[.[.(.(.[.[.[.[.[.[.[.[.[.[.[.[.[.[.[.[.[.[.[.[.[.[.[.[.[.[.[.[.[.[.[.[.[.[.",
"[.[.[.[.[.[.[.[.[.[.[.[.[.[.[.[.[.[.[.[.[.[.[.[.[.[.[.[.[.[.[.[.[.[.[.[.[.[.[.[.[.[.[.[.[.[.[.[.[.[.[.[.[.[.[.[.[.[.[.[.[.[.[.[.",
"[.[.[.[.[.[.[.[.[.[.[.[.[.[.[.[.[.[.[.[.[.[.[.[.[.[.[.[.[.[.[.[.[.[.[.[.[.[.[.[.[.[.[.[.[.[.[.[.[.[.[.[.[.[.[.[.[.[.[.[.[.[.[.].",
"[.[.[.[.[.[.[.[.[.[.[.[.[.[.[.[.[.[.[.[.[.[.[.[.[.[.[.[.[.[.[.[.[.[.[.[.[.[.[.[.[.[.[.[.[.[.[.[.[.[.[.[.[.[.[.[.[.[.[.[.[.[.[.[.",
"[.[.[.[.[.[.[.[.[.[.[.[.[.[.[.[.[.[.[.[.[.[.[.[.[.[.[.[.[.[.[.[.[.[.[.[.[.[.[.[.[.[.[.[.[.[.[.[.[.[.[.[.[.[.[.[.[.[.[.[.[.[.[.[.",
"[.[.[.[.[.[.[.[.[.[.[.[.[.[.[.[.[.[.[.[.[.[.[.[.[.[.[.[.[.[.[.[.[.[.[.].[.[.[.[.[.[.[.[.[.[.[.[.[.[.[.[.[.[.[.[.[.[.[.[.[.[.[.[.",
"[.[.[.[.[.[.[.[.[.[.[.[.[.[.[.[.[.[.[.[.[.[.[.[.[.[.[.[.[.[.[.[.[.[.[.[.[.[.[.[.[.[.[.[.[.[.[.[.[.[.[.[.[.[.[.[.[.[.[.[.[.[.[.[."
};
