/* XPM */
static char *result[] = {
/* columns rows colors chars-per-pixel */
"64 64 136 2 ",
"   c #7E3303",
".  c #7C3906",
"X  c #77360C",
"o  c #7D3B0C",
"O  c #7E3D15",
"+  c #7C3F1D",
"@  c #773D20",
"#  c #7B3F26",
"$  c #783F29",
"%  c #7A401B",
"&  c #774627",
"*  c #7D4223",
"=  c #76432A",
"-  c #7B442A",
";  c #7F482A",
":  c #774633",
">  c #843503",
",  c #8A3600",
"<  c #833B05",
"1  c #8C3C05",
"2  c #82370B",
"3  c #853B0B",
"4  c #8C3D0A",
"5  c #923D05",
"6  c #993E03",
"7  c #923F09",
"8  c #853D13",
"9  c #883E14",
"0  c #81351B",
"q  c #88341D",
"w  c #833F19",
"e  c #893F1A",
"r  c #823D22",
"t  c #8F4006",
"y  c #8D410C",
"u  c #944106",
"i  c #9C4305",
"p  c #9E4906",
"a  c #94410B",
"s  c #9C450C",
"d  c #9D490C",
"f  c #864116",
"g  c #8E4212",
"h  c #82421D",
"j  c #8B441B",
"k  c #8C481F",
"l  c #944512",
"z  c #9A4611",
"x  c #964913",
"c  c #9D4A13",
"v  c #9E5017",
"b  c #A34506",
"n  c #AA4504",
"m  c #A14A06",
"M  c #AC4B07",
"N  c #A3460B",
"B  c #A44B0D",
"V  c #AA4D0D",
"C  c #B34D0D",
"Z  c #AD5105",
"A  c #AD500C",
"S  c #B75207",
"D  c #BC5504",
"F  c #B3530D",
"G  c #BC560D",
"H  c #BE590E",
"J  c #A14713",
"K  c #A44C12",
"L  c #AB4E11",
"P  c #A84F18",
"I  c #B04F11",
"U  c #A65014",
"Y  c #AD5113",
"T  c #AD541A",
"R  c #B35414",
"E  c #BC5612",
"W  c #B65816",
"Q  c #BD5913",
"!  c #B45519",
"~  c #B95719",
"^  c #B5591B",
"/  c #BB5B1A",
"(  c #BF601F",
")  c #824221",
"_  c #884523",
"`  c #804826",
"'  c #8D4921",
"]  c #83452A",
"[  c #884728",
"{  c #844D2C",
"}  c #894C2D",
"|  c #814E33",
" . c #B55B24",
".. c #BB5D21",
"X. c #BE6121",
"o. c #C15507",
"O. c #C2560E",
"+. c #C2590E",
"@. c #C8590E",
"#. c #C15713",
"$. c #C15A13",
"%. c #CB5E14",
"&. c #C35E1B",
"*. c #CA5E1B",
"=. c #CA6017",
"-. c #C5611D",
";. c #CB631D",
":. c #C65F20",
">. c #C56323",
",. c #CA6523",
"<. c #CD6925",
"1. c #C4662A",
"2. c #CA6628",
"3. c #CD6B2A",
"4. c #D06723",
"5. c #D16A24",
"6. c #DA6D26",
"7. c #D36D2B",
"8. c #D96E2D",
"9. c #CE722E",
"0. c #D5712D",
"q. c #DA732E",
"w. c #CF6C33",
"e. c #D16E35",
"r. c #DA6F31",
"t. c #D67332",
"y. c #DB7633",
"u. c #D67A37",
"i. c #DE7935",
"p. c #DB773B",
"a. c #D4793A",
"s. c #DD7A39",
"d. c #E17733",
"f. c #E17934",
"g. c #E07A3A",
"h. c None",
/* pixels */
"h.: y < < < . < . < < < < 3 1 ] h.` 3 3 < < < < < < < y < < 9 h.h.h.h.h.h.h.h.h.h.h.h.h.h.h.h.h.h.h.h.h.h.h.h.- $ - - - - : h.h.",
"h.L ~ / / / Q / / / ^ Q / ~ E B O F R ~ / Q E R W R R R W F E a 9 R Y ! ! ! W R Y W W ! R R U O x ! Y Y A A A Z Z A Y Y A F K h.",
"] *.r.y.i.f.d.y.y.i.y.y.y.7.%.F s ;.r.t.q.y.y.y.q.t.0.0.q.<.+.M B ;.q.q.q.i.y.q.q.q.q.q.q.6.@.s E =.6.6.6.q.q.0.8.7.5.5.5.=.o.) ",
"} ,.g.a.7.2.>.>.&./ / &.../ $.L z 7.p.p.r.3.2.1.>.>.>.,.1.-.H B K 3.s.i.0.<.<.-.-.-.>.-.-.-.E d Q y.i.i.0.e.e.w.w.3.0.<.3.-.G 4 ",
"} ;.f.3.G G O.G H O.H H E E @.C a 0.u.>.o.H S H H H H H H G Q B P <.i.,.H H E H H G E H G Q E s / s.t.:./ G G G G G D G G Q G 3 ",
"} :.f./ H $.#.$.H E H $.E $.$.L i 9.0.H E #.$.$.$.Q Q Q E O.H B K 5.i.$.Q Q Q Q Q $.Q Q Q Q Q s Q i.4.S $.H H Q H +.Q Q H +.E O ",
"} -.i./ H O.O.O.O.O.O.O.Q H $.Y i 0.8.H $.O.O.O.+.H H H #.#.+.V V 4.q.$.H H E H H H +.H Q +.Q i Q u.2.E Q Q Q Q E Q Q Q / #.G 3 ",
"{ ;.q.+.O.$.$.$.$.$.$.+.$.$.$.U i e.6.#.$.$.$.+.Q +.$.+.#.#.$.N V 4.7.Q $.$.$.H Q +.$.$.Q Q E u / f.;.H Q $.E $.Q $.$.O.$.#.C 8 ",
"- ! ~ R R I R R R R R R R R R a u T ! F Y L R R R Y Y Y T Y L 7 z R Y Y Y Y Y Y A Y Y Y U R B g Y -.E E H H H H G H H H H ! V % ",
"h.0 5 1 4 4 , 4 4 1 4 4 1 1 5 3 . < 1 1 1 4 4 1 4 < 4 1 4 1 1 . o 3 9 g g y y y y y y 4 y 7 4 X < 4 a a y a y a a a a y a y 4 h.",
"h.a p p N b N s > N R R R ~ ~ R W R R R R R G d > B V B L V V V V V M V A B K 3 1 V V V V B V L V V B A B V c   s V B V B A d h.",
"= / 2.3.2.<.,.! 4 ~ r.t.y.y.i.i.y.q.q.q.q.q.=.V s ,.7.t.t.t.i.t.0.0.0.y.t.5.$.l Y ,.0.0.y.y.t.q.t.0.0.0.0.;.E 4 / y.y.0.t.4.O.r ",
"- *.d.t.7.6.,.~ y &.s.s.q.5.,.,.-.-.-.-.-.&.$.Y s t.i.u.t.7.3.<.2.,.,.,.,.%.+.s R y.s.y.t.7.<.2.2.,.,.,.>.=.G a ,.q.2.*.>.&.D 4 ",
"# ,.6.G E G #.I 4 &.s.3.G H G G G H H H G H +.V N 7.g.>.G H G G G H G H G G $.s Y y.0./ Q G G H G G G G G O.G u ,.;.S H H H F < ",
"# ,.,.E / Q Q R y &.p.>.G Q Q Q Q H H H H Q $.V p 8.t.$.H $.Q $.E $.Q #.E +.Q z T y.3.E / E $.Q $.$.#.#.$.Q E a 1.*.E $.Q $.F 3 ",
"@ ;.;.G Q Q Q R y ..d.>.G Q Q +.+.Q Q H Q $.+.P s 8.t.G $.H Q Q Q #.E $.#.#./ s T i.<.E Q Q Q Q E E $.E Q +.W u -.&.E $.$.$.G 3 ",
") %.=.H +.#.Q C 7 ..q.$.$.$.$.@.+.+.@.+.$.@.$.U b 6.6.G O.O.+.+.#.$.#.#.O.H Q i R q.;.O.+.H O.$.$.+.+.+.+.+.F i $.$.+.+.#.+.G 3 ",
"= Y R Y R R Y J 4 U ~ R R G ~ R W ~ R F W R R d s &.~ E Q ~ E E E Q E / Q Q Y u U &.E ~ E H E Q E E E E E ^ U 5 ! R R ~ ~ F M w ",
"h.4 7 y 4 4 4 3 2 4 5 4 1 u 7 3 y < a 5 4 7 4 3 > l a a a l a a s a a 7 a 7 4 > 4 7 a a u i a l a a a u i a y < 4 y 5 a 4 u 1 h.",
"= U R R ~ R / ^ ^ W R ~ ^ R R l < K B L C V B V V L V V M M U 1 1 L L Y Y R ! Y P L Y Y I I x   B Y Y R R R R ^ T ! Y ! ! R N h.",
"j $.7.t.d.d.q.q.y.q.q.q.q.0.;.B d >.3.8.y.y.q.q.0.0.q.0.q.,.$.c R 8.t.d.i.f.f.i.d.y.y.y.y.;.! 7 Q 7.y.y.f.f.d.q.y.q.q.y.q.;.F % ",
"4 $.i.i.q.<.,.;.-.-.-.-.=.&.$.B B 0.g.i.t.7.5.<.<.,.<.2.<.-.$.J R t.i.0.<.,.-.-.*.&.*./ *.$.R 7 &.i.i.t.<.,.>.&.-.-.&.&.&.Q F h ",
"g $.i.7.G Q H G G E Q H H W +.K d 0.y.,.H H E G G G G G G G $.J R i.t.Q G G H H E H E H E $.R 7 / i.7.E H H G H G Q Q H G Q C ) ",
"y &.i.>.G Q Q Q +.Q Q Q H Q +.d d 0.t.E E Q Q Q H Q Q Q H W $.J R y.5.G Q Q Q Q Q Q Q E Q $.R 7 $.f.2.H Q $.Q Q Q Q Q Q Q Q C h ",
"y $.s.>.G H H H H H H H H E +.B d 0.0.E Q H Q H H H H H H Q $.J F i.,.G H H H H H Q H H H Q R 7 $.q.-.G +.H H H H H H H H $.F h ",
"g $.8.*.@.+.+.H +.+.+.+.+.Q Q B n 0.7.E $.H Q +.+.+.+.H +.Q $.B R q.-.G H H H H #.O.O.O.O.$.R i Q q.-.H $.+.+.+.$.H H +.Q $.C h ",
"_ ~ Q ! E R W W E W E Q E W T a p W ^ W R E ~ ~ Q W W W W W Y a T E Q Q ~ / Q Q Q / Q / Q / P 4 T E G E E W W W ! E E R E Y J h.",
"h.3 a y a a y y y y a a 5 5 4 4 t 1 t t 5 5 6 6 a y a t u t y   , i i 6 6 i 6 i 6 l a 7 u u 3 . t y y y 4 a y y y y 4 4 3 a < h.",
"h.K F F C V R B > U / :.>.:.:.>.X... ./ X. .! c , A R R W R ! / ^ T T ! T T U 4 a R R R R R R ^ W Q Q ~ E E U , V E &.~ &.Q V h.",
"h *.e.r.8.0.,.F u -.6.i.g.s.i.y.y.y.y.u.a.t.*.P B ,.t.q.i.u.d.y.i.t.y.i.y.7./ N Y 7.t.d.i.f.f.y.q.u.p.i.y.;.! u >.s.p.t.t.<.O.h ",
") ,.y.2.2.;.-.R y X.i.y.3.-./ Q H H D D G H O.L s 0.y.0.9.<.>.&.*.&.&.$.$.#.Q s ! p.y.7.3.,.&.*.&.#.&.&.&.$.! t 3.5.E $.#.E G w ",
") ,.,.G G G H R 5 &.s.2.D G H H H E Q H H E #.C s 8.i.-.D G H G E E E #.#.#.#.z Y i.7.H G G G #.#.#.E O.Q $.R u 1.-.G Q Q Q H w ",
"* ,.>.E ( +.+.F a &.s.:.G Q Q Q Q Q Q Q Q Q $.L s 0.t.H &.#.#.#.#.#.#.#.#.#.#.z Y i.<.G E #.#.#.~ #.#.#.Q $.R t >.-.Q Q Q Q D f ",
"* ,.>.Q H H Q R 1 &.s.&.G Q Q Q Q Q Q Q E Q $.V s 8.0.G E #.E #.#.E E #.E #.Q z R i.,.E Q E #.#.#.#.#.~ Q Q / u >.*.E Q E $.G e ",
"h $./ Q Q Q Q U a &.7.$.+.$.$.$.Q $.$.$.$./ #.J s 6.<.H #.#.#.#.#.#.#.#.#.#.$.a I 8.-.Q $.$.#.#.#.#.$.#.$.$.R a W $.$.Q Q Q G h ",
"h.B Z B B V B s , B V V I L L P Y V L C V P V 6 a R R R R R R ! ! R R E ! R L 7 P ! R R R R R ! R ~ R R R R J 1 U A Y A A U d h.",
"h.4 u t 6 5 5 u 5 5 6 5 5 6 u 3 > 7 u 7 u u 6 6 5 1 7 5 5 a u 4 3 a 4 7 7 4 a > , 5 1 7 7 7 5 8 7 7 4 5 1 1 1 , , < < t 1 4 3 h.",
"] R -.1.1.3.2.2.2.1.1.1.3.-./ P u ^ X.>.-.1.1.1.>.:...>.:.~ / u s ! / / /  . ./ ^ / / / ~ ~ L > L ~ / ....X. .X.X.( ( ( / / d h.",
"j ,.y.i.f.i.y.8.q.q.q.7.q.4.&.Y B 3.i.i.i.y.y.q.q.q.t.q.q.,.Q m T 7.y.s.y.u.y.y.y.q.q.y.t.*.~ s E 5.p.s.g.i.y.y.t.q.y.0.q.;.F 0 ",
"1 ;.i.0.;.$.#.E H H o.G H o.$.Y N y.d.7.;.*.$.$.$.#.E #.H H +.b / g.i.8.<.;.*.-.*.&.$.&.$.$.E 6 &.y.i.7.,.*.&.$.$.Q $.Q Q Q G q ",
"y ,.u.-.H Q Q Q Q Q Q Q ~ #.$.Y N i.t.E E E $.E Q Q E Q Q Q $.b / i.3.Q E H H #.H H H E E $.E i / i.7.E E H H E Q Q Q H E +.G 0 ",
"t 1.u.Q Q Q $.E H Q Q Q Q #.$.U N t.7.G #.Q H +.Q +.+.H Q E / i ..s.-.E Q Q E E E $.Q $.Q $.R s $.i.2.G Q Q Q Q Q Q Q Q Q +.S 0 ",
"1 ;.u.+.O.O.O.O.+.H H +.Q O.$.Y n t.3.H #.#.#.#.#.$.$.Q H E / b ^ g.>.E Q Q Q Q Q Q Q E Q #.~ s Q s.2.E Q Q Q Q Q Q Q Q Q +.F 0 ",
"f -.<.H $.$.&.$.$.+.$.$.Q Q Q K N 3.>.E #.#.#.#.E / Q Q Q Q R u / 6.&.+.+.+.$.+.+.+.+.+.$.$.I z Q 8.*.o.+.$.+.+.@.+.H +.+.$.A r ",
"& J B K L K K K V B B L K V B y , s i d J B s J B d s d d s s 1 z I R Y F F F V A F R F A Y J 3 K I L R F A A F F A F F F T x h.",
"h.< 6 1 5 1 7 7 > a s u u u i x x a s i u u d a > u a a u 6 a 4 9 a 7 1 1 4 l 3 4 a a 1 y 6 6 9 u 7 7 1 1 a a 3 y a 1 1 1 u y h.",
"- R >.,.;.;.*.R 5 E &.<.<.7.3.<.<.<.<.<.<.,.&.A i ~ $.-.2.,.,.,.,.>.-.>.-.&.$.g B / / -.>.2.,.,.,.>.>.,.>.-.R , R *.2.,.1.;.F % ",
"- >.f.q.7.0.<.R a &.t.i.f.i.y.q.0.0.0.0.6.0.$.V d <.y.i.i.i.i.u.q.q.0.q.q.7.$.v Y *.y.i.f.i.y.y.y.0.q.q.y.8.Q l &.d.y.0.7.<.H j ",
"- ,.0.H G H E R 5 *.g.t.;.$.Q G H H F G H G +.Y p 5.s.0.,.-.$.Q Q H Q H +.E $.c C ,.i.t.,.&.$.Q Q G G H G E E a &.7.E G F H +.9 ",
") ,.;.G $.Q $.~ t &.i.,.D Q Q Q H Q Q H H Q @.Y p <.i.-.F H Q H Q Q H Q O.$.$.c M ,.y.>.S Q Q Q Q Q Q Q Q $.E a -.,.Q $.Q $.H 9 ",
"` ,.;.O.#.+.$.R u -.g.-.H Q H H H H H H H Q $.Y i 5.y.Q Q H Q Q Q H +.H +.E $.J V ,.i.&.E Q Q Q H Q H H Q Q ~ 7 -.;.G Q E #.#.9 ",
"; $.*.E $.$.$.E u / d.=.H $.Q +.+.+.$.Q Q +.@.U b 7.t./ H H ( H +.+.#.#.O.+.$.K Y <.i./ Q Q #.#.$.+.Q H $.#.^ l / ;.H H H $.O.e ",
"; G +.E Q ^ ^ P y ^ 2.W Q Q Q H H Q $.Q ^ Q Q c N ;.<.$.$.+.$.$.+.$.$.*.$.#.Q i T *.<.E #.$.$.$.$.$.$.&.$.$.L 6 / E Q $.Q +.S f ",
"h.6 i u u i u a > s u s i s u d x a i s s s s < , B B K B V B J K B K K K K J 1 a L N B L V L K K K K K K N l 4 u s N N s d a h.",
"h.a c v K B J z z p i B B d v j   l v K B i B B c s s u s s c 4 2 s s 7 l a 7 y 7 7 i 7 u u 7 < 3 x s 7 a 6 a 7 l a a a a s y h.",
"| G 4.5.8.t.t.t.t.0.0.0.q.5.-.Y i / ;.;.<.7.9.3.<.<.2.4.3.;.$.J s &.,.3.3.7.7.7.7.3.5.7.7.2./ 5 T &.*.,.,.;.*.,.>.:.*.>.*.&.G * ",
"' -.f.i.y.t.0.7.3.<.5.3.5.;.$.A i 3.f.f.i.y.0.0.0.0.8.0.q.;.$.V V ,.i.i.f.y.q.0.0.7.7.7.5.;.Q d R r.i.f.f.y.y.y.t.q.q.q.q.,.C 9 ",
"_ &.s.3.$.E G H G G F H G H $.Y i 3.d.7.-.Q Q Q E G E E H G Q K V 5.s.7.Q E E G F H H G G +.E s / i.y.7.;.&.&.Q &.$.Q Q Q $.E 3 ",
"k -.s.:.H Q $.Q Q Q Q $.Q +.Q Y b 0.y.E H Q Q Q Q Q Q $.Q H $.K V <.i.&.H $.Q Q H Q ( Q Q Q Q a / i.3.G H G H H E $.Q $.E $.E 3 ",
"k >.i./ H H Q Q Q E Q Q Q E Q Y i 7.t.E E E Q H H Q H Q Q H $.B B <.u.#.Q H Q H H H H Q Q +.Q s / i.,.H Q Q Q Q Q Q H E +.$.E 8 ",
"' &.u.$.+.H H H H H H Q $.O.$.R i t.q.G Q +.H $.H H H +.H Q $.B B <.t.E H H Q H Q H Q H Q +.Q a / d.;.G Q H H H H H H H H $.~ 3 ",
"[ / ,.Q E $.Q $.$.Q $.$.Q #.#.J i -.*.W Q E Q E E E E Q E E W s U *.Q E ~ E E E E E E E E G R a ~ 7.*.E $.Q $.$.$.$.$.+.$.$.I 9 ",
"h.y n n N N N N B N N N d N c f % u i p d d d d s d d s s N z f y N b N N B B s N N N N s n z w s V B B B Z V Z Z V V m V M a h.",
"h.h.h.h.] h.h.h.h.h.h.h.h.h.h.h.h.h.h.h.h.h.h.h.h.h.h.h.h.h.h.h.h.h.h.h.h.h.h.h.h.h.h.h.h.h.h.h.h.h h.h.h.h.h.h.h.h.h.h.h.h.h.h."
};
